<svg xmlns="http://www.w3.org/2000/svg" viewBox="0 0 197.5 300"><defs><style>.cls-1{fill:#fbfbfb;}.cls-2{fill:#99e24d;}.cls-3{fill:#4a565b;}.cls-4{fill:#4ce577;}.cls-5{fill:#4d98e2;}.cls-6{fill:#795ce5;}</style></defs><g id="Layer_2" data-name="Layer 2"><g id="Layer_1-2" data-name="Layer 1"><path class="cls-1" d="M6.42,297.46,0,207v-.26c0-1,.53-1.48,1.6-1.48H17.39a1.31,1.31,0,0,1,1.48,1.48l1.47,48.17c.09.36.22.53.4.53s.31-.17.4-.53l13-48.17A1.79,1.79,0,0,1,36,205.26H49.11a1.3,1.3,0,0,1,1.47,1.48l1.74,48.17c0,.36.11.53.33.53s.38-.17.47-.53l12.45-48.17a1.78,1.78,0,0,1,1.87-1.48H82.83q1.61,0,1.2,1.74L56.47,297.46a1.8,1.8,0,0,1-1.88,1.47H40.54a1.3,1.3,0,0,1-1.47-1.47L37.47,248q0-.54-.27-.54t-.54.54l-13,49.51a1.79,1.79,0,0,1-1.87,1.47H8C7,298.93,6.42,298.44,6.42,297.46Z"/><path class="cls-2" d="M131.53,269.22c-.62,4.29-1.2,7.63-1.74,10a26.73,26.73,0,0,1-9.16,15.19q-6.9,5.55-17.2,5.55-10.7,0-16.72-5.89t-5.36-15.65c0-1.61.18-4.19.54-7.76a1.66,1.66,0,0,1,1.74-1.61H98.75c1.16,0,1.65.54,1.47,1.61a43.79,43.79,0,0,0-.4,5.75,8.8,8.8,0,0,0,1.47,5.42,4.92,4.92,0,0,0,4.15,1.94,6.23,6.23,0,0,0,4.48-1.87,11.23,11.23,0,0,0,2.88-5.09c.27-1.34.8-4.55,1.61-9.63a74.3,74.3,0,0,0,.53-9.9,7.59,7.59,0,0,0-1.6-4.69,4.85,4.85,0,0,0-3.88-1.74,6.65,6.65,0,0,0-4.15,1.74,2.77,2.77,0,0,1-1.07.54,1.19,1.19,0,0,1-1.07-.67l-6.83-8.16a1.3,1.3,0,0,1-.27-.94,1.81,1.81,0,0,1,.54-1.34l18.07-19.94c.35-.53.26-.8-.27-.8H91a1.31,1.31,0,0,1-1.07-.47,1.27,1.27,0,0,1-.27-1.14l1.61-12.84a2.18,2.18,0,0,1,.6-1.14,1.55,1.55,0,0,1,1.14-.47h44.69a1.36,1.36,0,0,1,1.07.47,1.3,1.3,0,0,1,.27,1.14l-1.61,13.38a4.55,4.55,0,0,1-.93,2l-16.87,18.86c-.35.54-.31.81.14.81a11.83,11.83,0,0,1,9,5.35,20.62,20.62,0,0,1,3.35,12A86.45,86.45,0,0,1,131.53,269.22Z"/><path class="cls-1" d="M138.22,298.46a1.3,1.3,0,0,1-.27-1.14l11.11-90.45a2.18,2.18,0,0,1,.6-1.14,1.57,1.57,0,0,1,1.14-.47h23.42q10.83,0,17.06,6t6.22,16c0,.89-.09,2.23-.27,4L192,273q-1.47,11.77-9.43,18.87t-19.87,7.09H139.29A1.33,1.33,0,0,1,138.22,298.46Zm20.48-15.72,5.88-.13a8.39,8.39,0,0,0,6.09-3.08,14.39,14.39,0,0,0,3.28-7.76l4.82-39.34a14.84,14.84,0,0,0,.13-2.28,10.11,10.11,0,0,0-1.81-6.35,6.12,6.12,0,0,0-5.15-2.35h-5.75a.59.59,0,0,0-.67.67l-7.36,59.95C158,282.52,158.16,282.74,158.7,282.74Z"/><polygon class="cls-3" points="51.38 126.32 82.17 121.58 154.01 142.1 98.75 150.61 51.38 126.32"/><polygon class="cls-3" points="59.28 31.58 98.75 21.71 122.44 47.37 107.86 51.01 59.28 31.58"/><polygon class="cls-3" points="43.49 78.95 82.5 72.45 138.22 94.74 113.29 98.89 43.49 78.95"/><polygon class="cls-4" points="59.28 31.58 138.22 63.16 138.22 94.74 59.28 63.16 59.28 31.58"/><polygon class="cls-2" points="98.75 0 122.44 15.79 122.44 47.37 98.75 31.58 98.75 0"/><polygon class="cls-5" points="43.49 78.95 154.01 110.53 154.01 142.1 43.49 110.53 43.49 78.95"/><polygon class="cls-6" points="51.38 126.32 98.75 142.1 98.75 173.68 51.38 157.9 51.38 126.32"/></g></g></svg>